<svg width="129" height="130" viewBox="0 0 129 130" fill="none" xmlns="http://www.w3.org/2000/svg">
<rect y="0.5" width="129" height="129" rx="64.5" fill="white"/>
<path d="M52.75 54.175V51.75C52.75 46.125 57.275 40.6 62.9 40.075C69.6 39.425 75.25 44.7 75.25 51.275V54.725" stroke="#48B2E7" stroke-width="5" stroke-miterlimit="10" stroke-linecap="round" stroke-linejoin="round"/>
<path d="M56.5 90H71.5C81.55 90 83.35 85.975 83.875 81.075L85.75 66.075C86.425 59.975 84.675 55 74 55H54C43.325 55 41.575 59.975 42.25 66.075L44.125 81.075C44.65 85.975 46.45 90 56.5 90Z" stroke="#48B2E7" stroke-width="5" stroke-miterlimit="10" stroke-linecap="round" stroke-linejoin="round"/>
<path d="M72.7387 65H72.7612" stroke="#48B2E7" stroke-width="5" stroke-linecap="round" stroke-linejoin="round"/>
<path d="M55.2363 65H55.2587" stroke="#48B2E7" stroke-width="5" stroke-linecap="round" stroke-linejoin="round"/>
</svg>
