<svg width="25" height="24" viewBox="0 0 25 24" fill="none" xmlns="http://www.w3.org/2000/svg">
<g clip-path="url(#clip0_6104_4026)">
<path d="M3.03785 2.63954C2.71833 2.95906 2.71833 3.47711 3.03785 3.79663L20.4614 21.2202C20.7809 21.5397 21.299 21.5397 21.6185 21.2202C21.938 20.9007 21.938 20.3826 21.6185 20.0631L4.19494 2.63954C3.87542 2.32002 3.35737 2.32002 3.03785 2.63954Z" fill="#6A6A6A"/>
<path d="M0.5 11.829C0.5 11.1356 1.88917 9.10231 4.12612 7.27112L5.26046 8.45787C5.19343 8.5119 5.12704 8.56628 5.06133 8.62095C4.06792 9.4475 3.27754 10.3028 2.74963 11.003C2.48441 11.3548 2.30377 11.6431 2.19768 11.8486C2.17976 11.8832 2.16542 11.9128 2.15403 11.9374L2.15608 11.946C2.17507 12.0251 2.20878 12.1311 2.26456 12.2642C2.37729 12.533 2.56129 12.8671 2.82798 13.2497C3.36163 14.0151 4.16361 14.8844 5.17851 15.7031C7.22513 17.3541 9.94174 18.6472 12.7727 18.6472C13.4591 18.6472 14.1315 18.5669 14.7836 18.4211L16.0721 19.7692C15.031 20.0939 13.925 20.2835 12.7727 20.2835C6.14531 20.2835 0.5 14.2835 0.5 11.829Z" fill="#6A6A6A"/>
<path d="M8.13636 12.3744C8.13636 12.091 8.16179 11.8136 8.21048 11.5442L13.3959 16.9693C13.1921 16.9966 12.9841 17.0108 12.7727 17.0108C10.2121 17.0108 8.13636 14.935 8.13636 12.3744Z" fill="#6A6A6A"/>
<path d="M11.6553 7.87361L17.2186 13.694C17.3426 13.2758 17.4091 12.8329 17.4091 12.3744C17.4091 9.81383 15.3333 7.73806 12.7727 7.73806C12.3875 7.73806 12.0132 7.78505 11.6553 7.87361Z" fill="#6A6A6A"/>
<path d="M20.0439 15.6431C19.8706 15.7948 19.6918 15.9438 19.508 16.0892L20.643 17.2767C23.0301 15.3508 24.5 13.0003 24.5 11.829C24.5 9.91988 19.1274 3.91988 12.5 3.91988C11.1278 3.91988 9.80938 4.20048 8.58131 4.65759L9.82975 5.96372C10.693 5.70495 11.5887 5.55624 12.5 5.55624C15.3272 5.55624 17.9768 6.84606 19.9626 8.4359C20.9472 9.22425 21.7222 10.0505 22.2358 10.7532C22.4931 11.1053 22.6669 11.4021 22.7701 11.626C22.8258 11.7468 22.8496 11.8217 22.8592 11.8558C22.8506 11.9053 22.8248 12.0207 22.749 12.21C22.6447 12.4702 22.4743 12.7991 22.2276 13.1787C21.7342 13.9377 20.9914 14.8139 20.0439 15.6431Z" fill="#6A6A6A"/>
</g>
<defs>
<clipPath id="clip0_6104_4026">
<rect width="24" height="24" fill="white" transform="translate(0.5)"/>
</clipPath>
</defs>
</svg>
