<svg width="25" height="24" viewBox="0 0 25 24" fill="none" xmlns="http://www.w3.org/2000/svg">
<path d="M12.5 9C13.2957 9 14.0587 9.31607 14.6213 9.87868C15.1839 10.4413 15.5 11.2044 15.5 12C15.5 12.7956 15.1839 13.5587 14.6213 14.1213C14.0587 14.6839 13.2957 15 12.5 15C11.7044 15 10.9413 14.6839 10.3787 14.1213C9.81607 13.5587 9.5 12.7956 9.5 12C9.5 11.2044 9.81607 10.4413 10.3787 9.87868C10.9413 9.31607 11.7044 9 12.5 9ZM12.5 4.5C17.5 4.5 21.77 7.61 23.5 12C21.77 16.39 17.5 19.5 12.5 19.5C7.5 19.5 3.23 16.39 1.5 12C3.23 7.61 7.5 4.5 12.5 4.5ZM3.68 12C4.48825 13.6503 5.74331 15.0407 7.30248 16.0133C8.86165 16.9858 10.6624 17.5013 12.5 17.5013C14.3376 17.5013 16.1383 16.9858 17.6975 16.0133C19.2567 15.0407 20.5117 13.6503 21.32 12C20.5117 10.3497 19.2567 8.95925 17.6975 7.98675C16.1383 7.01424 14.3376 6.49868 12.5 6.49868C10.6624 6.49868 8.86165 7.01424 7.30248 7.98675C5.74331 8.95925 4.48825 10.3497 3.68 12Z" fill="#6A6A6A"/>
</svg>
